<svg width="77" height="73" viewBox="0 0 77 73" fill="none" xmlns="http://www.w3.org/2000/svg">
<g clip-path="url(#clip0_964_18177)">
<path d="M67.9269 28.1614C65.532 28.1614 63.4244 29.1556 61.8757 30.7111C56.1757 26.7503 48.4958 24.2006 39.9858 23.928L44.4085 3.91556L58.4908 7.09061C58.4908 10.5543 61.3009 13.3766 64.7496 13.3766C68.2622 13.3766 71.0883 10.4741 71.0883 7.01043C71.0883 3.54674 68.2782 0.644287 64.7496 0.644287C62.2908 0.644287 60.1673 2.1356 59.1135 4.17213L43.5622 0.70843C42.7799 0.499966 42.0135 1.06121 41.8059 1.84696L36.9522 23.912C28.5059 24.2648 20.9059 26.8144 15.19 30.7752C13.6412 29.1556 11.4538 28.1614 9.05888 28.1614C0.181567 28.1614 -2.72432 40.124 5.40258 44.2131C5.11518 45.4799 4.98745 46.8269 4.98745 48.1739C4.98745 61.6118 20.0597 72.5 38.5648 72.5C57.1496 72.5 72.2219 61.6118 72.2219 48.1739C72.2219 46.8269 72.0782 45.4158 71.7269 44.149C79.6942 40.0438 76.7563 28.1614 67.9269 28.1614ZM18.2874 45.063C18.2874 41.5351 21.0975 38.6968 24.6261 38.6968C28.0748 38.6968 30.8849 41.5191 30.8849 45.063C30.8849 48.5267 28.0748 51.349 24.6261 51.349C21.1135 51.365 18.2874 48.5267 18.2874 45.063ZM52.5034 60.0563C46.6916 65.8933 30.2942 65.8933 24.4824 60.0563C23.8438 59.4951 23.8438 58.5008 24.4824 57.8594C25.0412 57.2982 26.0311 57.2982 26.59 57.8594C31.0286 62.4296 45.7496 62.5098 50.3799 57.8594C50.9387 57.2982 51.9286 57.2982 52.4874 57.8594C53.1421 58.5008 53.1421 59.4951 52.5034 60.0563ZM52.3757 51.365C48.9269 51.365 46.1169 48.5427 46.1169 45.079C46.1169 41.5512 48.9269 38.7129 52.3757 38.7129C55.8883 38.7129 58.7143 41.5351 58.7143 45.079C58.6984 48.5267 55.8883 51.365 52.3757 51.365Z" fill="#BDBDBD"/>
</g>
<defs>
<clipPath id="clip0_964_18177">
<rect width="76" height="72" fill="white" transform="translate(0.5 0.5)"/>
</clipPath>
</defs>
</svg>
